<svg width="51" height="49" viewBox="0 0 51 49" fill="none" xmlns="http://www.w3.org/2000/svg">
<path d="M2.38437 0.338029C1.21111 0.833039 0 2.92731 0 4.52658C0 5.74506 1.74097 13.6652 2.11944 14.0079C2.19514 14.0841 2.49791 13.9318 2.83854 13.6652C3.89826 12.7894 4.04965 14.7314 3.17916 17.7395C2.98993 18.4249 3.10347 18.6153 3.59549 18.6153C4.8066 18.6153 6.62326 16.1403 8.13715 12.5229C10.2566 7.30625 12.2625 5.44044 17.3719 3.91733C17.826 3.76502 17.7882 3.57463 17.1826 3.00347C16.6528 2.47038 15.5552 2.12768 13.4358 1.86114C11.7705 1.63267 9.19687 1.13766 7.75868 0.718806C4.88229 -0.118903 3.70903 -0.195059 2.38437 0.338029Z" fill="black"/>
<path d="M43.108 1.63267C43.0323 1.70883 40.9128 2.01345 38.4149 2.24192C35.2736 2.54654 33.5326 2.88924 32.7 3.38425C29.6722 5.28813 25.3576 14.1983 25.3576 18.5773C25.3576 19.4911 25.8875 20.3288 27.742 22.385C30.5049 25.3932 31.451 27.1828 31.716 29.734C31.7917 30.7621 32.0187 31.5618 32.1701 31.5618C32.2837 31.5618 32.8135 31.1429 33.3056 30.6098C33.7976 30.0767 34.4788 29.6579 34.8573 29.6579C36.4847 29.6579 40.4587 23.0704 40.7615 19.8719C41.0264 17.3207 37.5823 7.49664 35.917 5.93545C34.8194 4.90736 34.8194 4.90736 35.6899 4.90736C37.1281 4.90736 38.3771 6.39239 39.7017 9.66707C41.7455 14.6172 43.4108 17.7395 44.5083 18.5773C45.7951 19.5673 46.3629 19.1865 46.6656 17.0922C46.7792 16.2545 47.4226 14.6933 48.1417 13.5891C49.2392 11.8375 49.3906 11.2663 49.3528 9.17206C49.3149 6.77316 49.4663 6.46854 50.2611 7.26817C51.0559 8.06781 50.791 5.70699 49.8826 4.10773C49.3528 3.15578 48.5958 2.47038 47.6118 2.05153C46.2872 1.51844 43.4865 1.2519 43.108 1.63267ZM30.6563 15.1883C30.6563 15.6072 30.3913 15.9499 30.0885 15.9499C29.5208 15.9499 29.2938 15.1503 29.7858 14.6933C30.2399 14.1983 30.6563 14.4268 30.6563 15.1883ZM34.8573 15.988C35.6142 17.4349 33.7597 18.9961 31.3375 18.9961C29.8993 18.9961 28.3854 18.0822 28.3854 17.2445C28.3854 16.483 28.8774 16.5972 29.4451 17.473C29.7479 18.0061 30.3156 18.2346 31.224 18.2346C32.8892 18.2346 33.8354 16.978 33.4569 15.3406C33.192 14.3126 33.2299 14.2745 33.8354 14.7695C34.176 15.0741 34.6302 15.6072 34.8573 15.988Z" fill="black"/>
<path d="M12.1868 13.9318C11.9219 14.046 11.4677 14.6172 11.1271 15.2645C10.5972 16.2926 10.5972 16.483 11.1271 17.3207C12.4896 19.3388 14.9875 18.6534 15.2146 16.1784L15.3281 14.998L16.1986 16.483C17.1826 18.1203 17.6368 18.1584 17.0312 16.483C16.1229 14.1222 14.1927 13.0941 12.1868 13.9318ZM12.8681 15.3787C12.8681 15.6833 12.6031 15.9499 12.3003 15.9499C11.9976 15.9499 11.7326 15.6833 11.7326 15.3787C11.7326 15.0741 11.9976 14.8076 12.3003 14.8076C12.6031 14.8076 12.8681 15.0741 12.8681 15.3787Z" fill="black"/>
<path d="M16.6528 26.4974C15.7066 26.9924 15.1767 27.6017 14.7604 28.7821C14.2684 30.229 14.3063 30.6098 14.9118 32.5518L15.5931 34.6841L14.6469 35.7122C10.4837 40.1673 11.9976 47.2117 17.4097 48.6967C19.6049 49.306 23.0111 48.9633 25.0927 47.9733C26.3038 47.364 27.1365 47.2498 28.5747 47.4021C29.7479 47.5163 30.8076 47.4021 31.3753 47.0975C32.5865 46.4501 32.8514 45.6505 31.8295 45.6505C31.4132 45.6505 30.6562 45.4982 30.1264 45.2697L29.1802 44.927L30.1642 43.1374C31.4132 40.9289 31.5646 37.578 30.5427 36.0168C29.7858 34.8364 28.3097 34.3414 26.9094 34.8364C25.8497 35.2172 25.509 36.0168 25.1684 38.9488L24.9035 40.7766L23.9573 39.9008C23.4274 39.4058 22.2542 37.9969 21.3458 36.7403L19.6806 34.5318L21.3458 32.9326C23.1247 31.2952 23.6924 29.8863 23.3139 28.3251C22.784 26.269 19.075 25.2409 16.6528 26.4974ZM20.9674 27.754C21.6865 28.4775 20.6646 28.8202 18.2802 28.6298C15.8958 28.4394 15.5552 28.0205 17.1826 27.3351C18.1288 26.9544 20.3997 27.1828 20.9674 27.754ZM17.4854 37.578C17.826 38.1492 19.1507 39.7485 20.3997 41.1573C21.6865 42.5281 22.7083 43.8609 22.7083 44.0893C22.7083 44.7747 20.551 45.6505 18.7344 45.6505C15.9715 45.6505 14.6847 44.7366 13.8521 42.0712C13.3601 40.5481 15.2146 36.5119 16.4257 36.5119C16.6528 36.5119 17.1448 36.9688 17.4854 37.578ZM27.3257 38.7965C27.2122 40.51 26.1903 42.9089 25.2062 43.7085C24.7142 44.1274 24.7899 43.8228 25.3955 42.452C25.8118 41.5 26.266 39.8246 26.3795 38.7965C26.6444 36.4357 27.4771 36.4357 27.3257 38.7965Z" fill="black"/>
</svg>
